Coordinates
version=1
nRows=10
nColumns=22
inDegrees=yes

Units are S.I. units (second, meters, Newtons, ...)
If the header above contains a line with 'inDegrees', this indicates whether rotational values are in degrees (yes) or radians (no).

endheader
time	pelvis_tilt	pelvis_list	pelvis_rotation	pelvis_tx	pelvis_ty	pelvis_tz	hip_flexion_r	hip_adduction_r	hip_rotation_r	knee_angle_r	ankle_angle_r	subtalar_angle_r	hip_flexion_l	hip_adduction_l	hip_rotation_l	knee_angle_l	ankle_angle_l	subtalar_angle_l	lumbar_extension	lumbar_bending	lumbar_rotation
      3.24000000	      6.13386687	      9.43391257	    135.27331076	      0.98648595	      0.91512452	     -0.44493649	      5.00680239	      8.43102654	      0.92497913	    -18.86855790	     11.99165815	      3.93651887	     21.00048665	     -6.67272224	      4.07271169	    -73.64422055	     -8.23321181	     -8.65869051	    -10.82978274	      8.19744819	     -3.63460446
      3.25000000	      5.65686258	      9.49629876	    135.91027017	      0.98014819	      0.91580024	     -0.44985095	      3.94819151	      8.09737262	      0.51982931	    -18.68954368	     12.44939226	      3.85880303	     22.22962937	     -6.14209581	      3.91098231	    -73.35430663	     -6.76981596	     -8.69854698	    -11.25334308	      8.00171773	     -3.10724075
      3.26000000	      5.16220647	      9.52472456	    136.50603874	      0.97380595	      0.91644738	     -0.45475923	      2.85463809	      7.73310322	      0.12505862	    -18.43439816	     12.88809929	      3.77469485	     23.35077791	     -5.61171716	      3.70013978	    -72.74386694	     -5.40051997	     -8.69035442	    -11.65030295	      7.75371685	     -2.58248129
      3.27000000	      4.71026417	      9.51088492	    137.03397138	      0.96752390	      0.91693955	     -0.45969372	      1.82316678	      7.37508118	     -0.29762333	    -18.17879817	     13.31673897	      3.72083130	     24.42935106	     -5.15537865	      3.41566751	    -71.84732182	     -4.10997381	     -8.56776764	    -11.97649313	      7.48499821	     -2.01687128
      3.28000000	      4.28711225	      9.46111115	    137.50474921	      0.96125915	      0.91729418	     -0.46466381	      0.82270220	      7.02123440	     -0.68787902	    -17.90013981	     13.73732671	      3.66906471	     25.44209997	     -4.76834771	      3.06834919	    -70.66480877	     -2.90196265	     -8.36502884	    -12.24632282	      7.19050070	     -1.42530902
      3.29000000	      3.89961476	      9.37921071	    137.92493793	      0.95499160	      0.91750718	     -0.46970279	     -0.14856460	      6.68348490	     -1.02227420	    -17.59348809	     14.14264095	      3.60448117	     26.38665428	     -4.46741383	      2.66015142	    -69.20034759	     -1.77368738	     -8.10444928	    -12.45523922	      6.87280126	     -0.82415815
      3.30000000	      3.56598435	      9.26825497	    138.29903575	      0.94871560	      0.91753187	     -0.47477393	     -1.05663185	      6.37038046	     -1.32185885	    -17.29547810	     14.55931313	      3.53781957	     27.28480145	     -4.26241912	      2.20567612	    -67.47857404	     -0.70077697	     -7.83495326	    -12.59721377	      6.55305825	     -0.19040692
      3.31000000	      3.27337536	      9.13376226	    138.64549982	      0.94238314	      0.91741693	     -0.47989817	     -1.94226820	      6.08002447	     -1.56322449	    -16.96193336	     14.95512550	      3.45435256	     28.10948838	     -4.14003468	      1.71955294	    -65.49094806	      0.30940658	     -7.55465773	    -12.68192543	      6.22587380	      0.42638963
      3.32000000	      3.02300445	      8.97935329	    138.97887328	      0.93596696	      0.91715687	     -0.48504556	     -2.80782230	      5.81307943	     -1.76617436	    -16.59151827	     15.33488290	      3.36332017	     28.86249458	     -4.08790241	      1.21765680	    -63.25244014	      1.24828711	     -7.29072848	    -12.71081719	      5.90105921	      1.01243891
      3.33000000	      2.82194355	      8.81074271	    139.30778238	      0.92947191	      0.91674027	     -0.49017038	     -3.64189189	      5.57414396	     -1.95482655	    -16.19681872	     15.70961685	      3.28726493	     29.55124966	     -4.09676678	      0.72585961	    -60.77917037	      2.10572023	     -7.08922091	    -12.68911120	      5.59322278	      1.57175044
